#define batteryf_width 15
#define batteryf_height 9
static unsigned char battery9_bits[] = {
   0xff, 0x1f, 0x01, 0x10, 0xfd, 0x77, 0xfd, 0x57, 0xfd, 0x57, 0xfd, 0x57,
   0xfd, 0x77, 0x01, 0x10, 0xff, 0x1f };
