#define battery3_width 15
#define battery3_height 9
static unsigned char battery1_bits[] = {
   0xff, 0x1f, 0x01, 0x10, 0x05, 0x70, 0x05, 0x50, 0x05, 0x50, 0x05, 0x50,
   0x05, 0x70, 0x01, 0x10, 0xff, 0x1f };
