#define battery4_width 15
#define battery4_height 9
static unsigned char battery2_bits[] = {
   0xff, 0x1f, 0x01, 0x10, 0x0d, 0x70, 0x0d, 0x50, 0x0d, 0x50, 0x0d, 0x50,
   0x0d, 0x70, 0x01, 0x10, 0xff, 0x1f };
