#define battery7_width 15
#define battery7_height 9
static unsigned char battery5_bits[] = {
   0xff, 0x1f, 0x01, 0x10, 0x7d, 0x70, 0x7d, 0x50, 0x7d, 0x50, 0x7d, 0x50,
   0x7d, 0x70, 0x01, 0x10, 0xff, 0x1f };
