#define battery9_width 15
#define battery9_height 9
static unsigned char battery7_bits[] = {
   0xff, 0x1f, 0x01, 0x10, 0xfd, 0x71, 0xfd, 0x51, 0xfd, 0x51, 0xfd, 0x51,
   0xfd, 0x71, 0x01, 0x10, 0xff, 0x1f };
