#define battery6_width 15
#define battery6_height 9
static unsigned char battery4_bits[] = {
   0xff, 0x1f, 0x01, 0x10, 0x3d, 0x70, 0x3d, 0x50, 0x3d, 0x50, 0x3d, 0x50,
   0x3d, 0x70, 0x01, 0x10, 0xff, 0x1f };
