#define batteryf_width 15
#define batteryf_height 9
static unsigned char battery8_bits[] = {
   0xff, 0x1f, 0x01, 0x10, 0xfd, 0x73, 0xfd, 0x53, 0xfd, 0x53, 0xfd, 0x53,
   0xfd, 0x73, 0x01, 0x10, 0xff, 0x1f };
