#define battery5_width 15
#define battery5_height 9
static unsigned char battery3_bits[] = {
   0xff, 0x1f, 0x01, 0x10, 0x1d, 0x70, 0x1d, 0x50, 0x1d, 0x50, 0x1d, 0x50,
   0x1d, 0x70, 0x01, 0x10, 0xff, 0x1f };
