#define battery0_width 15
#define battery0_height 9
static unsigned char battery0_bits[] = {
   0xff, 0x1f, 0x01, 0x10, 0x01, 0x70, 0x01, 0x50, 0x01, 0x50, 0x01, 0x50,
   0x01, 0x70, 0x01, 0x10, 0xff, 0x1f };
