#define battery8_width 15
#define battery8_height 9
static unsigned char battery6_bits[] = {
   0xff, 0x1f, 0x01, 0x10, 0xfd, 0x70, 0xfd, 0x50, 0xfd, 0x50, 0xfd, 0x50,
   0xfd, 0x70, 0x01, 0x10, 0xff, 0x1f };
